<svg width="20" height="21" viewBox="0 0 20 21" fill="none" xmlns="http://www.w3.org/2000/svg">
<mask id="mask0_66_266" style="mask-type:alpha" maskUnits="userSpaceOnUse" x="0" y="0" width="20" height="21">
<rect y="0.5" width="20" height="20" fill="#D9D9D9"/>
</mask>
<g mask="url(#mask0_66_266)">
<path d="M15.5769 11.125H13.8142C13.6371 11.125 13.4886 11.065 13.3687 10.9452C13.249 10.8253 13.1892 10.6768 13.1892 10.4998C13.1892 10.3225 13.249 10.1741 13.3687 10.0546C13.4886 9.93483 13.6371 9.87497 13.8142 9.87497H15.5769C15.754 9.87497 15.9024 9.9349 16.0223 10.0548C16.142 10.1746 16.2019 10.3231 16.2019 10.5002C16.2019 10.6774 16.142 10.8258 16.0223 10.9454C15.9024 11.0651 15.754 11.125 15.5769 11.125ZM12.1106 14.4279C12.2174 14.2815 12.3539 14.1971 12.52 14.1746C12.6861 14.1522 12.8424 14.1944 12.9887 14.3012L14.3942 15.3573C14.5406 15.4642 14.625 15.6007 14.6475 15.7668C14.6699 15.933 14.6276 16.0892 14.5208 16.2356C14.414 16.3818 14.2776 16.4662 14.1115 16.4887C13.9452 16.5112 13.789 16.469 13.6427 16.3621L12.2371 15.306C12.0908 15.1992 12.0065 15.0627 11.984 14.8966C11.9616 14.7305 12.0038 14.5743 12.1106 14.4279ZM14.3621 5.61059L12.9567 6.66663C12.8103 6.77344 12.654 6.81566 12.4879 6.7933C12.3218 6.7708 12.1853 6.68636 12.0785 6.53997C11.9717 6.39372 11.9295 6.23747 11.9519 6.07122C11.9744 5.90511 12.0588 5.76865 12.2052 5.66184L13.6106 4.6058C13.757 4.499 13.9133 4.45677 14.0794 4.47913C14.2455 4.50163 14.3819 4.58601 14.4887 4.73226C14.5956 4.87865 14.6378 5.0349 14.6154 5.20101C14.5929 5.36726 14.5085 5.50379 14.3621 5.61059ZM6.05771 12.5833H3.71792C3.50458 12.5833 3.32569 12.5111 3.18125 12.3666C3.03694 12.2223 2.96479 12.0434 2.96479 11.83V9.16997C2.96479 8.95649 3.03694 8.77761 3.18125 8.6333C3.32569 8.48886 3.50458 8.41663 3.71792 8.41663H6.05771L8.55125 5.92309C8.75111 5.72337 8.98111 5.6783 9.24125 5.78788C9.50139 5.89747 9.63146 6.09316 9.63146 6.37497V14.625C9.63146 14.9068 9.50139 15.1025 9.24125 15.2121C8.98111 15.3216 8.75111 15.2766 8.55125 15.0768L6.05771 12.5833ZM8.38146 7.87497L6.58979 9.66663H4.21479V11.3333H6.58979L8.38146 13.125V7.87497Z" fill="white"/>
</g>
</svg>
